<?xml version="1.0" encoding="utf-8"?>
<?xml-stylesheet type="text/xsl" href="rss1.xsl"?>
<rss version="2.0" xmlns:atom="http://www.w3.org/2005/Atom" xmlns:content="http://purl.org/rss/1.0/modules/content/" xmlns:dc="http://purl.org/dc/elements/1.1/" xmlns:media="http://search.yahoo.com/mrss/">
<channel>
 <title>Getty</title>
 <link>http://www.gettyimg.com/</link>
 <atom:link href="http://www.gettyimg.com/" rel="self" type="application/rss+xml" />

 
                <item>
                <title><![CDATA[【Apple Music】WEB-RiP - Princess Nokia - Boys Are From Mars (Feat. Yung Baby Tate) Lyric Video [2160p AM WEB-DL AAC2.0 H.265]]]></title>
                <link><![CDATA[https://sharemania.us/threads/princess-nokia-boys-are-from-mars-feat-yung-baby-tate-lyric-video-2160p-am-web-dl-aac2-0-h-265.219624/]]></link>
                <description><![CDATA[<article>
<blockquote class="messageText SelectQuoteContainer ugc baseHtml">
<div style="text-align: center"><img src="https://i.imgur.com/bFaKJXd.jpg" class="bbCodeImage LbImage" alt="[​IMG]" data-url="https://i.imgur.com/bFaKJXd.jpg" style=""><br>
<div style="text-align: center">​</div>
<div class="ToggleTriggerAnchor bbCodeSpoilerContainer">
<button type="button" class="button bbCodeSpoilerButton ToggleTrigger Tooltip JsOnly" data-target="> .SpoilerTarget"><span>Spoiler</span></button>
<div class="SpoilerTarget bbCodeSpoilerText">General<br>
Complete name : C:\Users\BR8NG0R\Downloads\Video\Boys Are From Mars (feat. Yung Baby.m4v<br>
Format : MPEG-4<br>
Codec ID : M4V (isom/iso4/M4V /mp42)<br>
File size : 475 MiB<br>
Duration : 3 min 21 s<br>
Overall bit rate mode : Variable<br>
Overall bit rate : 19.8 Mb/s<br>
Movie name : Boys Are From Mars (feat. Yung Baby Tate) [Lyric Video]<br>
Performer : Princess Nokia<br>
Genre : Hip-Hop/Rap<br>
ContentType : Music Video<br>
Recorded date : UTC 2021-09-28 07:00:00<br>
Encoded date : UTC 2023-03-20 21:58:40<br>
Tagged date : UTC 2023-03-20 21:58:40<br>
Copyright : ℗ (C) 2021 Princess Nokia, Inc. under exclusive license to Sony Music Entertainment<br>
Cover : Yes<br>
Rating : None<br>
GenreID : 1618<br>
AppleStoreCountry : Brazil<br>
AlbumTitleID : 883252125<br>
AppleStoreCatalogID : 1587260278<br>
Video<br>
ID : 2<br>
Format : HEVC<br>
Format/Info : High Efficiency Video Coding<br>
Format profile : Main 10@L5@High<br>
Codec ID : hvc1<br>
Codec ID/Info : High Efficiency Video Coding<br>
Duration : 3 min 11 s<br>
Bit rate : 20.5 Mb/s<br>
Maximum bit rate : 52.4 Mb/s<br>
Width : 3 840 pixels<br>
Height : 2 160 pixels<br>
Display aspect ratio : 16:9<br>
Frame rate mode : Constant<br>
Frame rate : 23.976 (24000/1001) FPS<br>
Color space : YUV<br>
Chroma subsampling : 4:2:0<br>
Bit depth : 10 bits<br>
Scan type : Progressive<br>
Bits/(Pixel*Frame) : 0.103<br>
Stream size : 468 MiB (99%)<br>
Title : Core Media Video<br>
Encoded date : UTC 2021-09-24 05:36:39<br>
Tagged date : UTC 2023-03-20 21:58:41<br>
Color range : Limited<br>
Color primaries : BT.709<br>
Transfer characteristics : BT.709<br>
Matrix coefficients : BT.709<br>
Codec configuration box : hvcC<br>
Audio<br>
ID : 1<br>
Format : AAC LC<br>
Format/Info : Advanced Audio Codec Low Complexity<br>
Codec ID : mp4a-40-2<br>
Duration : 3 min 21 s<br>
Bit rate mode : Variable<br>
Bit rate : 252 kb/s<br>
Maximum bit rate : 365 kb/s<br>
Channel(s) : 2 channels<br>
Channel layout : L R<br>
Sampling rate : 48.0 kHz<br>
Frame rate : 46.875 FPS (1024 SPF)<br>
Compression mode : Lossy<br>
Stream size : 6.04 MiB (1%)<br>
Title : Core Media Audio<br>
Encoded date : UTC 2021-09-24 05:30:52<br>
Tagged date : UTC 2023-03-20 21:58:41</div>
</div><br>
<div class="bbCodeBlock bbCodeVfcHH HiddenContent">
<div class="attribution type">Hidden Content:</div>
<blockquote>You must reply before you can see the hidden data contained here.</blockquote>
</div></div>
<div class="messageTextEndMarker">&nbsp;</div>
</blockquote>
</article>]]></description>
                <author><![CDATA[Brungor]]></author>
                </item>

                
                <item>
                <title><![CDATA[【Requests】[REQ VID] - BTS Documentaries]]></title>
                <link><![CDATA[https://sharemania.us/threads/bts-documentaries.219623/]]></link>
                <description><![CDATA[<article>
<blockquote class="messageText SelectQuoteContainer ugc baseHtml">
does anyone have weverse rips from their documentaries? (bring the soul, break the silence)? <img src="styles/default/xenforo/smilies/big_smile-48.png" class="mceSmilie" alt=":)" title="Smile    :)">
<div class="messageTextEndMarker">&nbsp;</div>
</blockquote>
</article>]]></description>
                <author><![CDATA[kimnamjoon1234]]></author>
                </item>

                
                <item>
                <title><![CDATA[【SD】DJ Khaled - I'm So Hood (Remix)]]></title>
                <link><![CDATA[https://sharemania.us/threads/dj-khaled-im-so-hood-remix.219622/]]></link>
                <description><![CDATA[<article>
<blockquote class="messageText SelectQuoteContainer ugc baseHtml">
<div style="text-align: center">DJ Khaled - I'm So Hood (Remix)<br>
(Feat. Jeezy, Ludacris, Big Boi, Busta Rhymes, Lil Wayne, Fat Joe, Baby, Rick Ross &amp; T-Pain)<br>
<img src="https://i.imgur.com/0FLXxZ5.jpg" class="bbCodeImage LbImage" alt="[​IMG]" data-url="https://i.imgur.com/0FLXxZ5.jpg" style=""><br>
<div class="ToggleTriggerAnchor bbCodeSpoilerContainer">
<button type="button" class="button bbCodeSpoilerButton ToggleTrigger Tooltip JsOnly" data-target="> .SpoilerTarget"><span>Spoiler</span></button>
<div class="SpoilerTarget bbCodeSpoilerText">General<br>
Complete name : C:\Users\BR8NG0R\Downloads\Video\DJ Khaled_ Im So Hood Remix Direction, Animation, Adam Rush Nominated for Best Hip Hop Video of 2008 BET Hip Hop Awards [3484800].mp4<br>
Format : MPEG-4<br>
Format profile : QuickTime<br>
Codec ID : qt 2005.03 (qt )<br>
File size : 706 MiB<br>
Duration : 5 min 12 s<br>
Overall bit rate : 19.0 Mb/s<br>
Encoded date : UTC 2009-09-09 14:34:51<br>
Tagged date : UTC 2009-09-09 14:35:03<br>
Writing library : Apple QuickTime<br>
Video<br>
ID : 2<br>
Format : AVC<br>
Format/Info : Advanced Video Codec<br>
Format profile : Main@L3.2<br>
Format settings : 2 Ref Frames<br>
Format settings, CABAC : No<br>
Format settings, Reference : 2 frames<br>
Format settings, GOP : M=2, N=24<br>
Codec ID : avc1<br>
Codec ID/Info : Advanced Video Coding<br>
Duration : 5 min 12 s<br>
Bit rate : 18.3 Mb/s<br>
Width : 640 pixels<br>
Height : 480 pixels<br>
Display aspect ratio : 4:3<br>
Frame rate mode : Constant<br>
Frame rate : 29.970 (29970/1000) FPS<br>
Color space : YUV<br>
Chroma subsampling : 4:2:0<br>
Bit depth : 8 bits<br>
Scan type : Progressive<br>
Bits/(Pixel*Frame) : 1.982<br>
Stream size : 679 MiB (96%)<br>
Language : English<br>
Encoded date : UTC 2009-09-09 14:34:40<br>
Tagged date : UTC 2009-09-09 14:35:03<br>
Color range : Limited<br>
Color primaries : BT.601 NTSC<br>
Transfer characteristics : BT.709<br>
Matrix coefficients : BT.601<br>
Codec configuration box : avcC<br>
Audio<br>
ID : 1<br>
Format : PCM<br>
Format settings : Little / Signed<br>
Codec ID : sowt<br>
Duration : 5 min 12 s<br>
Bit rate mode : Constant<br>
Bit rate : 705.6 kb/s<br>
Channel(s) : 2 channels<br>
Channel layout : L R<br>
Sampling rate : 22.05 kHz<br>
Bit depth : 16 bits<br>
Stream size : 26.3 MiB (4%)<br>
Language : English<br>
Encoded date : UTC 2009-09-09 14:34:40<br>
Tagged date : UTC 2009-09-09 14:35:03</div>
</div><br>
<div class="bbCodeBlock bbCodeVfcHH HiddenContent">
<div class="attribution type">Hidden Content:</div>
<blockquote>You must reply before you can see the hidden data contained here.</blockquote>
</div></div>
<div class="messageTextEndMarker">&nbsp;</div>
</blockquote>
</article>]]></description>
                <author><![CDATA[Brungor]]></author>
                </item>

                </channel></rss>